<mxfile host="Electron" modified="2024-11-13T10:41:40.032Z" agent="Mozilla/5.0 (Windows NT 10.0; Win64; x64) AppleWebKit/537.36 (KHTML, like Gecko) draw.io/22.0.3 Chrome/114.0.5735.289 Electron/25.8.4 Safari/537.36" etag="6GRVKYDAmDO52dXHVg3J" version="22.0.3" type="device">
  <diagram name="Page-1" id="tRug0OOZPl2W6gaOmyCv">
    <mxGraphModel dx="1173" dy="608" grid="1" gridSize="10" guides="1" tooltips="1" connect="1" arrows="1" fold="1" page="1" pageScale="1" pageWidth="1169" pageHeight="827" math="0" shadow="0">
      <root>
        <mxCell id="0" />
        <mxCell id="1" parent="0" />
        <object placeholders="1" c4Name="DeepDrunkTalks.Backend" c4Type="ContainerScopeBoundary" c4Application="Container" label="&lt;font style=&quot;font-size: 16px&quot;&gt;&lt;b&gt;&lt;div style=&quot;text-align: left&quot;&gt;%c4Name%&lt;/div&gt;&lt;/b&gt;&lt;/font&gt;&lt;div style=&quot;text-align: left&quot;&gt;[%c4Application%]&lt;/div&gt;" id="qkgcQ2BmxOzQfRcCj1Vr-1">
          <mxCell style="rounded=1;fontSize=11;whiteSpace=wrap;html=1;dashed=1;arcSize=20;fillColor=none;strokeColor=#666666;fontColor=#333333;labelBackgroundColor=none;align=left;verticalAlign=bottom;labelBorderColor=none;spacingTop=0;spacing=10;dashPattern=8 4;metaEdit=1;rotatable=0;perimeter=rectanglePerimeter;noLabel=0;labelPadding=0;allowArrows=0;connectable=0;expand=0;recursiveResize=0;editable=1;pointerEvents=0;absoluteArcSize=1;points=[[0.25,0,0],[0.5,0,0],[0.75,0,0],[1,0.25,0],[1,0.5,0],[1,0.75,0],[0.75,1,0],[0.5,1,0],[0.25,1,0],[0,0.75,0],[0,0.5,0],[0,0.25,0]];" vertex="1" parent="1">
            <mxGeometry x="380" y="150" width="480" height="310" as="geometry" />
          </mxCell>
        </object>
        <mxCell id="qkgcQ2BmxOzQfRcCj1Vr-10" style="edgeStyle=orthogonalEdgeStyle;rounded=0;orthogonalLoop=1;jettySize=auto;html=1;" edge="1" parent="1" source="qkgcQ2BmxOzQfRcCj1Vr-2" target="qkgcQ2BmxOzQfRcCj1Vr-5">
          <mxGeometry relative="1" as="geometry" />
        </mxCell>
        <mxCell id="qkgcQ2BmxOzQfRcCj1Vr-2" value="DeepDrunkTalks.Backend.API" style="rounded=0;whiteSpace=wrap;html=1;" vertex="1" parent="1">
          <mxGeometry x="420" y="180" width="170" height="60" as="geometry" />
        </mxCell>
        <mxCell id="qkgcQ2BmxOzQfRcCj1Vr-3" value="DeepDrunkTalks.Backend.BLL" style="rounded=0;whiteSpace=wrap;html=1;" vertex="1" parent="1">
          <mxGeometry x="420" y="260" width="170" height="60" as="geometry" />
        </mxCell>
        <mxCell id="qkgcQ2BmxOzQfRcCj1Vr-9" style="edgeStyle=orthogonalEdgeStyle;rounded=0;orthogonalLoop=1;jettySize=auto;html=1;" edge="1" parent="1" source="qkgcQ2BmxOzQfRcCj1Vr-4" target="qkgcQ2BmxOzQfRcCj1Vr-5">
          <mxGeometry relative="1" as="geometry" />
        </mxCell>
        <mxCell id="qkgcQ2BmxOzQfRcCj1Vr-4" value="DeepDrunkTalks.Backend.DAL" style="rounded=0;whiteSpace=wrap;html=1;" vertex="1" parent="1">
          <mxGeometry x="420" y="340" width="170" height="60" as="geometry" />
        </mxCell>
        <mxCell id="qkgcQ2BmxOzQfRcCj1Vr-5" value="DeepDrunkTalks.Backend.Common" style="rounded=0;whiteSpace=wrap;html=1;" vertex="1" parent="1">
          <mxGeometry x="630" y="260" width="200" height="60" as="geometry" />
        </mxCell>
        <mxCell id="qkgcQ2BmxOzQfRcCj1Vr-6" value="" style="endArrow=classic;html=1;rounded=0;" edge="1" parent="1" source="qkgcQ2BmxOzQfRcCj1Vr-2" target="qkgcQ2BmxOzQfRcCj1Vr-3">
          <mxGeometry width="50" height="50" relative="1" as="geometry">
            <mxPoint x="670" y="400" as="sourcePoint" />
            <mxPoint x="720" y="350" as="targetPoint" />
          </mxGeometry>
        </mxCell>
        <mxCell id="qkgcQ2BmxOzQfRcCj1Vr-7" value="" style="endArrow=classic;html=1;rounded=0;" edge="1" parent="1" source="qkgcQ2BmxOzQfRcCj1Vr-4" target="qkgcQ2BmxOzQfRcCj1Vr-3">
          <mxGeometry width="50" height="50" relative="1" as="geometry">
            <mxPoint x="670" y="400" as="sourcePoint" />
            <mxPoint x="720" y="350" as="targetPoint" />
          </mxGeometry>
        </mxCell>
        <mxCell id="qkgcQ2BmxOzQfRcCj1Vr-8" value="" style="endArrow=classic;html=1;rounded=0;" edge="1" parent="1" source="qkgcQ2BmxOzQfRcCj1Vr-3" target="qkgcQ2BmxOzQfRcCj1Vr-5">
          <mxGeometry width="50" height="50" relative="1" as="geometry">
            <mxPoint x="670" y="400" as="sourcePoint" />
            <mxPoint x="720" y="350" as="targetPoint" />
          </mxGeometry>
        </mxCell>
      </root>
    </mxGraphModel>
  </diagram>
</mxfile>
